<?xml version="1.0" encoding="UTF-8"?>
<svg id="Layer_2" data-name="Layer 2" xmlns="http://www.w3.org/2000/svg" viewBox="0 0 1500 1500">
  <defs>
    <style>
      .cls-1 {
        fill: #fff;
      }

      .cls-2 {
        fill: #0a0a0a;
      }

      .cls-3 {
        fill: #caff00;
      }
    </style>
  </defs>
  <g id="Layer_1-2" data-name="Layer 1">
    <g>
      <rect class="cls-2" x="0" y="0" width="1500" height="1500" rx="389.21" ry="389.21"/>
      <g>
        <path class="cls-1" d="M588.92,558.36c-33.62-18.74-70.6-28.12-110.95-28.12s-77.33,9.38-110.95,28.12c-33.62,18.75-60.32,44.84-80.08,78.25-19.77,33.42-29.65,71.12-29.65,113.09s9.88,79.78,29.65,113.4c19.76,33.62,46.46,59.81,80.08,78.55,33.62,18.75,70.6,28.12,110.95,28.12s77.22-9.37,110.64-28.12c33.41-18.74,59.91-44.93,79.47-78.55,19.56-33.62,29.34-71.42,29.34-113.4s-9.69-79.67-29.04-113.09c-19.36-33.41-45.85-59.5-79.47-78.25Z"/>
        <path class="cls-3" d="M1134.2,558.36c-33.62-18.74-70.6-28.12-110.95-28.12s-77.33,9.38-110.95,28.12c-33.62,18.75-60.32,44.84-80.08,78.25-19.77,33.42-29.65,71.12-29.65,113.09s9.88,79.78,29.65,113.4c19.76,33.62,46.46,59.81,80.08,78.55,33.62,18.75,70.6,28.12,110.95,28.12s77.23-9.37,110.65-28.12c33.41-18.74,59.91-44.93,79.47-78.55,19.56-33.62,29.34-71.42,29.34-113.4s-9.69-79.67-29.04-113.09c-19.36-33.41-45.85-59.5-79.47-78.25Z"/>
      </g>
    </g>
  </g>
</svg>