<?xml version="1.0" encoding="UTF-8"?>
<svg id="Layer_2" data-name="Layer 2" xmlns="http://www.w3.org/2000/svg" viewBox="0 0 9435.95 1500">
  <defs>
    <style>
      .cls-1 {
        fill: #fff;
      }

      .cls-2 {
        fill: #caff00;
      }
    </style>
  </defs>
  <g id="Layer_1-2" data-name="Layer 1">
    <g>
      <path class="cls-1" d="M1131.78,95.96C1017.04,32.01,890.82,0,753.13,0s-263.91,32.01-378.66,95.96c-114.74,63.99-205.85,153.01-273.29,267.04C33.7,477.06,0,605.72,0,748.96s33.7,272.26,101.18,387c67.44,114.74,158.55,204.12,273.29,268.08,114.74,63.99,240.96,95.96,378.66,95.96s263.55-31.98,377.61-95.96c114.03-63.96,204.45-153.34,271.21-268.08,66.76-114.74,100.14-243.73,100.14-387s-33.06-271.89-99.1-385.95c-66.08-114.03-156.47-203.05-271.21-267.04Z"/>
      <polygon class="cls-1" points="1700.27 1485.4 2057.01 1485.4 2057.01 892.91 2503.47 892.91 2503.47 615.44 2057.01 615.44 2057.01 306.67 2653.68 306.67 2653.68 20.86 1700.27 20.86 1700.27 1485.4"/>
      <polygon class="cls-1" points="2841.43 1485.4 3198.18 1485.4 3198.18 892.91 3644.63 892.91 3644.63 615.44 3198.18 615.44 3198.18 306.67 3794.84 306.67 3794.84 20.86 2841.43 20.86 2841.43 1485.4"/>
      <path class="cls-2" d="M4936,112.66c-115.46-61.19-250.35-91.79-404.73-91.79h-548.68v1464.53h548.68c152.98,0,287.54-30.57,403.69-91.79,116.11-61.18,205.82-147.4,269.12-258.69,63.27-111.26,94.92-238.52,94.92-381.78s-31.65-272.26-94.92-382.83c-63.3-110.57-152.65-196.43-268.08-257.65ZM4823.35,1066.06c-75.1,73.74-180.13,110.57-315.02,110.57h-168.98V325.45h168.98c134.89,0,239.92,37.56,315.02,112.66s112.66,180.13,112.66,315.02-37.55,239.23-112.66,312.93Z"/>
      <path class="cls-2" d="M6570.54,95.96c-114.74-63.95-240.96-95.96-378.65-95.96s-263.91,32.01-378.65,95.96c-114.74,63.99-205.85,153.01-273.3,267.04-67.48,114.06-101.18,242.72-101.18,385.95s33.7,272.26,101.18,387c67.44,114.74,158.55,204.12,273.3,268.08,114.74,63.99,240.96,95.96,378.65,95.96s263.55-31.98,377.61-95.96c114.03-63.96,204.45-153.34,271.21-268.08,66.76-114.74,100.14-243.73,100.14-387s-33.06-271.89-99.1-385.95c-66.08-114.03-156.47-203.05-271.21-267.04Z"/>
      <polygon class="cls-2" points="7059.76 306.67 7447.8 306.67 7447.8 1485.4 7804.55 1485.4 7804.55 306.67 8192.58 306.67 8192.58 20.86 7059.76 20.86 7059.76 306.67"/>
      <path class="cls-2" d="M9371.28,834.49c-43.13-55.61-94.24-98.05-153.34-127.26-59.13-29.21-135.96-59.78-230.53-91.79-94.6-30.58-164.13-59.1-208.63-85.54-44.53-26.4-66.76-63.27-66.76-110.57,0-43.09,13.2-76.15,39.63-99.09,26.41-22.95,61.19-34.42,104.32-34.42,50.07,0,91.08,13.56,123.09,40.68,31.98,27.12,49.35,64.35,52.16,111.61h385.96c-6.98-137.69-59.82-245.13-158.55-322.32-98.77-77.19-228.8-115.79-390.13-115.79s-287.21,38.6-385.96,115.79c-98.77,77.19-148.12,183.94-148.12,320.24,0,91.79,21.55,166.22,64.67,223.23,43.1,57.05,94.57,100.14,154.38,129.35,59.78,29.2,136.97,58.41,231.57,87.61,65.36,19.49,115.78,36.87,151.25,52.16,35.47,15.32,65.36,34.78,89.71,58.41,24.32,23.67,36.51,53.56,36.51,89.71,0,43.13-15.32,76.87-45.9,101.18-30.61,24.35-72.33,36.51-125.17,36.51s-93.19-14.25-125.17-42.77c-32.01-28.49-50.79-69.89-56.33-124.13h-379.7c2.77,95.96,29.54,178.05,80.32,246.17,50.75,68.16,118.55,119.63,203.41,154.38,84.82,34.78,180.78,52.16,287.9,52.16s205.14-20.15,285.82-60.5c80.64-40.32,142.19-94.56,184.63-162.72,42.41-68.13,63.63-143.95,63.63-227.4,0-87.62-21.58-159.24-64.67-214.88Z"/>
    </g>
  </g>
</svg>